<svg xmlns="http://www.w3.org/2000/svg">
	<defs>
		<style>
			:root svg:not(:target) {
				display: none;
			}
		</style>
	</defs>

	<svg id="logo"
    viewBox="0 0 173 40" fill="none">
    <path fill="#EC9630" d="M31.57 17.8c-.79 4.61 3.76 14.32-1.54 16.16-5.3 1.84-7.64 5-9.18-1.57-.72-3.07-1.04-8.81 0-11.46 3.16-.29 4.89-2.77 6.8-3.78 4.38-2.32 4.68 0 3.92.64Z"/>
    <path fill="#EFBC3A" d="M16.05 14.6c-.59-5.24-8.67 4.12-4.95 10.57l.35 8.2 20.35 1.57.06-.23c2.63-10.66 5.26-21.33-1.05-16.34-7.94 6.3-14.2 1.3-14.76-3.78Z"/>
    <path fill="#EC9630" d="M32.97 25.22c-1.25-5.4-1.65 2.99-9.3-.09-8.09-5.25-12.4-9.58-13.17.1 0 7.44 3.98 11.3 12.52 11.3 14.07-2.05 10.7-5.54 9.95-11.3Z"/>
    <path fill="var(--white)" fill-rule="evenodd" d="M14.28 0a6.48 6.48 0 0 0-5.61 3.24l-7.8 13.5a6.48 6.48 0 0 0 0 6.48l7.8 13.5c1.15 2.01 3.3 3.25 5.6 3.25h15.6a6.48 6.48 0 0 0 5.61-3.24l7.8-13.5a6.48 6.48 0 0 0 0-6.49l-7.8-13.5A6.48 6.48 0 0 0 29.88 0h-15.6ZM31.5 31.05V8.72h-5.15v8.5h-8.53v-8.5h-5.16v22.33h5.16v-8.86h8.53v8.86h5.15Z" clip-rule="evenodd"/>
    <path fill="var(--white)" d="M74.44 10.15v19.54h-4.5v-7.75H62.5v7.75H58V10.15h4.5v7.44h7.44v-7.44h4.5ZM77.24 22.56c0-1.06.19-2.03.56-2.92a7.5 7.5 0 0 1 3.88-3.94 6.98 6.98 0 0 1 5.68 0 7.09 7.09 0 0 1 3.88 3.94c.39.89.58 1.86.58 2.92a7.53 7.53 0 0 1-2.14 5.3A7.09 7.09 0 0 1 84.53 30a7.32 7.32 0 0 1-2.85-.56 7.72 7.72 0 0 1-2.3-1.58 8 8 0 0 1-1.58-2.36 7.7 7.7 0 0 1-.56-2.94Zm10.4 0c0-1.1-.3-1.97-.9-2.61a2.9 2.9 0 0 0-2.2-.96c-.88 0-1.6.32-2.2.96-.6.64-.9 1.5-.9 2.6s.3 1.97.9 2.61c.6.64 1.32.96 2.2.96.86 0 1.6-.32 2.2-.96.6-.64.9-1.5.9-2.6ZM95.55 19.3h-2.17v-3.57h1.09c1.14 0 1.7-.57 1.7-1.7V12h3.57v3.41h2.95v3.88h-2.95v4.65c0 .62.18 1.12.53 1.49.35.35.8.53 1.33.53h.44l.34-.06.3-.1v3.72a6.06 6.06 0 0 1-2.02.31c-1.62 0-2.88-.44-3.77-1.33-.9-.9-1.34-2.22-1.34-3.94V19.3ZM107.97 14.95a4.5 4.5 0 0 1 1.63-3.47 5.84 5.84 0 0 1 1.9-1.07 7.3 7.3 0 0 1 2.52-.41c.8 0 1.56.15 2.25.44a5.8 5.8 0 0 1 3.1 2.9c.32.64.5 1.34.54 2.08h-1.55a4.18 4.18 0 0 0-4.35-4.03c-.7 0-1.33.1-1.89.3-.55.2-1.02.46-1.4.8a3.13 3.13 0 0 0-1.2 2.47c0 .88.26 1.57.79 2.07.52.48 1.18.88 1.98 1.2.8.3 1.66.57 2.57.81.92.23 1.78.56 2.58.97.8.42 1.46.96 1.98 1.64.54.66.8 1.59.8 2.77 0 .79-.13 1.51-.42 2.18-.28.66-.69 1.22-1.22 1.7-.54.47-1.19.85-1.96 1.13-.77.27-1.63.41-2.6.41-.97 0-1.84-.14-2.6-.4a5.96 5.96 0 0 1-1.98-1.17 5.2 5.2 0 0 1-1.27-1.78 6.24 6.24 0 0 1-.51-2.22h1.56a4.9 4.9 0 0 0 1.47 3.03 4.68 4.68 0 0 0 3.33 1.15c1.48 0 2.63-.38 3.44-1.12a3.8 3.8 0 0 0 1.2-2.91c0-.93-.26-1.66-.78-2.18a5.76 5.76 0 0 0-1.98-1.29c-.8-.33-1.66-.62-2.58-.85-.92-.24-1.78-.56-2.57-.95-.8-.4-1.46-.91-1.99-1.55a4.08 4.08 0 0 1-.79-2.65ZM135.27 29.69h-1.86l-6.82-7.13v7.13h-1.4V10.15h1.4v12.4l6.2-6.5h1.86l-6.2 6.5 6.82 7.14ZM140.53 29.69h-1.39V16.04h1.4V29.7Zm-1.7-18c0-.3.1-.56.3-.77.2-.2.47-.31.78-.31a1.05 1.05 0 0 1 1.08 1.1c0 .3-.1.56-.3.77-.2.2-.46.3-.78.3-.3 0-.57-.1-.78-.3a1.1 1.1 0 0 1-.3-.78ZM152.63 15.9a5.45 5.45 0 0 1 3.88 1.58c.48.5.86 1.11 1.13 1.82.28.7.43 1.48.43 2.33v8.06h-1.4v-8.06c0-.61-.11-1.18-.33-1.7a4.19 4.19 0 0 0-2.23-2.31 4.46 4.46 0 0 0-4.74.9c-.38.4-.69.86-.9 1.39-.22.52-.33 1.1-.33 1.72v8.06h-1.4V16.04h.94l.46 2.02h.16c.25-.4.58-.76.98-1.1a5.3 5.3 0 0 1 3.35-1.08ZM172.64 25.81a4.02 4.02 0 0 1-1.29 2.83c-.4.37-.89.66-1.47.88a5.98 5.98 0 0 1-3.9 0 4.49 4.49 0 0 1-2.53-2.24 4.4 4.4 0 0 1-.43-1.62h1.4a3.5 3.5 0 0 0 1.07 2.05c.57.5 1.4.74 2.5.74 1.01 0 1.8-.26 2.38-.79.59-.52.88-1.14.88-1.85 0-.61-.2-1.09-.6-1.42-.39-.33-.88-.59-1.46-.76-.58-.18-1.21-.34-1.91-.47a9.15 9.15 0 0 1-1.9-.57 4.05 4.05 0 0 1-1.46-1.06 2.9 2.9 0 0 1-.58-1.93 3.47 3.47 0 0 1 1.18-2.6c.39-.35.86-.61 1.41-.8a5.64 5.64 0 0 1 3.73.03c.54.2 1.02.49 1.44.84a3.9 3.9 0 0 1 1.4 2.7h-1.4c-.16-.7-.52-1.3-1.06-1.77a3.2 3.2 0 0 0-2.2-.71c-1.01 0-1.78.23-2.32.7-.52.46-.78 1-.78 1.61 0 .6.2 1.05.59 1.35.39.3.87.54 1.45.71.57.16 1.21.32 1.9.46.7.13 1.34.32 1.92.59a3.9 3.9 0 0 1 1.45 1.09c.4.47.6 1.14.6 2.01Z"/>
  </svg>

	<svg id="cs-go"
		viewBox="0 0 128 128" fill="none">
		<path fill="#FFFFFF" d="M60.5.3c2.4-2.2 6-3 9.2-2 1.2.3 2.2 1 3.3 1.8 1 .6 2 .8 2.8 1.5.4.3 0 .8 0 1.3 1.1 2.5 1.7 5.2.8 8-.7.8-2 1-3 1.5-.2 1.1.2 2.2.3 3.3l-.6.5c1.5-.1 3-.4 4.6-.8.5-.5 1.4-.2 2.2-.3 0-1.1.4-2.2.4-3.3.2 0 .5 0 .7-.2 0 .8 0 1.7.2 2.5.4.3 1 .1 1.6.2v1h28.2v1.4h.9v-5.3h1v4.3l.4.2.1.6c.3-.3.7-.6 1.2-.4l.2.8c-.3.3-.4.7-.3 1.2h7.8c.3-.3.7-.5 1-.6.3 0 .5.2.6.3h3.8a5 5 0 0 1 0 1.9h-3.8l-.5.4-1.1-.7h-7c-1.4.4-2.9.4-4.2.1v1.6H99.7a3 3 0 0 1-1.6.7c.3 1.2-1.1 1.5-1.6 2.4-.3.5-.8.8-1.3 1-.4 2.5.5 4.9 1.1 7.2l-2.2.6-1.1 5a4.7 4.7 0 0 1-2.9 3.2c-1 1.1-2.2 2.3-3.8 2.4-.5.1-1-.3-1.3-.6-2 .2-3.9-.8-5.7-1.6l-5.5-3.1c.1 1.1-.4 2.1-.8 3 .8.5 2 .8 2.5 1.8.4.7.7 1.5.7 2.4 0 3-.4 5.9-.6 8.8.1 2.1-1 4.2-2.4 5.8-1-.1-1.8-.5-2.7-1-.3.8-1 1.5-.6 2.4.3 1 .3 2.2.8 3.2 2.7 3 5 6.2 6.8 9.8 1.7 3.5 3 7.2 4.3 10.8h1c.3 1 0 2.2.6 3.2.6.9.4 2 .4 3a223 223 0 0 1-.5 7.3l-.8 5.1c0 1.3.6 2.6.5 4 0 1.2 0 2.5-1 3.4 0 2.7-.7 5.5.3 8.2 1.3 1.8 2.8 3.5 4.3 5 1.7.8 3.7 1 5.1 2.4.6 1 .3 2 .1 3-3.4.5-7 .5-10.4 0-1.3-.4-2.6-1-4-1-1.9 0-4 .7-5.7-.6-.2-2.2.6-4.3 1-6.4.2-.7 1-1.2.8-2l-.5-7.6c-.3-.1-.8-.3-.8-.8 0-1.2-.4-2.4-.7-3.6-.6-3-.8-6.2-.9-9.4 0-.9.5-1.5 1.2-2.1l.4-4.2c-.3-.8-.9-1.3-1.2-2-1.4.2-3.5.5-4.4-1l-6.4-9.6c-.9-.1-2 0-2.7-.6-.9-1-1.5-2.3-2-3.5-.3 1-.4 2-1 2.8-.5.9-1.3 1.4-1.9 2.2a78 78 0 0 0-1.5 3.9c-.6 1.6-1.4 3.2-1.5 5-.1.9-.3 1.7-.6 2.5-.4.7-1.1 1-1.8 1.2-.4 1-.8 2.1-1.5 3-.5.6-1.3.8-1.6 1.5-.3 1-.8 1.9-1.2 2.8-.2 1 .5 2 .2 3-.6 2.4-1.8 4.7-3 6.9-.5 1.6-1 3.3-1.7 4.9-.3.6-1.2.8-1.8.9-.7 1.7-1.5 3.4-2 5.3-.3 1.8-.3 3.7-.2 5.5 0 .8.5 1.4.8 2.2.4 1 .1 1.9 0 2.9-3.2.4-6.4.7-9.5-.3-.3-.2-.2-.6-.3-1a9 9 0 0 1 0-4.3c1.1-3.8 2-7.7 3-11.5-.3-.4-1-.7-1-1.4 0-1 0-2.2.3-3.2.5-1.8 1.8-3.2 2.5-4.9.2-.7.1-1.5.2-2.2 0-1.7 1-3 1.7-4.5.7-1.3 1.3-2.6 2.2-3.6.7-.6.7-1.5 1.2-2.2.5-.9 1.3-1.6 1.3-2.7.1-1.3-.4-2.6-.2-3.9.3-3.8 1-7.5 1.7-11.4-.3-.4-.8-.8-1-1.3l.3-1.2-.8-1.2 1-1.5-1-.9c.4-1.2.2-3 1.7-3.5l.7.2c-.3-2.1-.3-4.3-.5-6.4a20 20 0 0 1-.4-7c.8-1.1 2.3-1.6 3.7-1.7-1.8-.4-3.5-.6-5.2-1.1-.1-1.5.1-3 .4-4.4.7-2.9.4-5.8.8-8.7.4-.8 1.4-1 2.3-.8 1 .1 2.1-.2 3.2-.5v-1.3c-.7-2.9-.5-5.8 0-8.6.6-3.5 2-7 4.7-9.6A9.4 9.4 0 0 1 55 13c.8 0 1.3.8 2 1.3l.8-1c-.4-1.3-1-2.8-1-4.3C57 5.8 58 2.4 60.5.3Zm25.1 23c.2.1.2.1 0 0Zm1.1.1c.1.6.3 1.1 0 1.6-.4.2-1 .2-1.3.4h3.4c.9-.2.5-1.3.5-2-.5-.6-1.7-.2-2.6 0ZM84 26.8c.8 1 1.2 2.3 2 3.2 1-1.4 1.8-2.9 3-4-1.4-.2-2.9 0-4.3-.2l-.7 1Z"/>
	</svg>

	<svg id="rust"
		viewBox="0 0 128 128" fill="none">
		<path fill="#FFFFFF" d="m68 59-9 9 9 9 9-9-9-9ZM88 71 71 88l8 7 16-16-7-8ZM101 84l-17 17 21 27 23-23-27-21ZM56 52h24V42H56v10ZM56 34h24l5-34H51l5 34ZM52 80V56H42v24h10ZM34 80V56L0 51v34l34-5Z"/>
	</svg>

</svg>
