<!-- this comment is needed so that Vue does not inlining svg in the production build                                                                                                                                                                                                                                                                                                                                                                                                                                                                                                                                                                                                                                                                                                                                                                                                                                                                                                                                                                                                                                                                                                                                                                                                                                                                                                                                                                                                                                                                                                                                                                                                                                                                                                                                                                                                                                                                                                                                                                                                                                                                                                                                                                                                                                                                                                                                                                                                                                                                                                                                                                                                                                                                                                                                                                                                                                                                                                                                                                                                                                                                                                                                                                                                                                                                                                                                                                                                                                                                                                                                                                                                                                                                                                                                                                     -->
<svg xmlns="http://www.w3.org/2000/svg">
	<svg id="logo"
    viewBox="0 0 173 40" fill="none">
    <path fill="#EC9630" d="M31.57 17.8c-.79 4.61 3.76 14.32-1.54 16.16-5.3 1.84-7.64 5-9.18-1.57-.72-3.07-1.04-8.81 0-11.46 3.16-.29 4.89-2.77 6.8-3.78 4.38-2.32 4.68 0 3.92.64Z"/>
    <path fill="#EFBC3A" d="M16.05 14.6c-.59-5.24-8.67 4.12-4.95 10.57l.35 8.2 20.35 1.57.06-.23c2.63-10.66 5.26-21.33-1.05-16.34-7.94 6.3-14.2 1.3-14.76-3.78Z"/>
    <path fill="#EC9630" d="M32.97 25.22c-1.25-5.4-1.65 2.99-9.3-.09-8.09-5.25-12.4-9.58-13.17.1 0 7.44 3.98 11.3 12.52 11.3 14.07-2.05 10.7-5.54 9.95-11.3Z"/>
    <path fill="var(--white)" fill-rule="evenodd" d="M14.28 0a6.48 6.48 0 0 0-5.61 3.24l-7.8 13.5a6.48 6.48 0 0 0 0 6.48l7.8 13.5c1.15 2.01 3.3 3.25 5.6 3.25h15.6a6.48 6.48 0 0 0 5.61-3.24l7.8-13.5a6.48 6.48 0 0 0 0-6.49l-7.8-13.5A6.48 6.48 0 0 0 29.88 0h-15.6ZM31.5 31.05V8.72h-5.15v8.5h-8.53v-8.5h-5.16v22.33h5.16v-8.86h8.53v8.86h5.15Z" clip-rule="evenodd"/>
    <path fill="var(--white)" d="M74.44 10.15v19.54h-4.5v-7.75H62.5v7.75H58V10.15h4.5v7.44h7.44v-7.44h4.5ZM77.24 22.56c0-1.06.19-2.03.56-2.92a7.5 7.5 0 0 1 3.88-3.94 6.98 6.98 0 0 1 5.68 0 7.09 7.09 0 0 1 3.88 3.94c.39.89.58 1.86.58 2.92a7.53 7.53 0 0 1-2.14 5.3A7.09 7.09 0 0 1 84.53 30a7.32 7.32 0 0 1-2.85-.56 7.72 7.72 0 0 1-2.3-1.58 8 8 0 0 1-1.58-2.36 7.7 7.7 0 0 1-.56-2.94Zm10.4 0c0-1.1-.3-1.97-.9-2.61a2.9 2.9 0 0 0-2.2-.96c-.88 0-1.6.32-2.2.96-.6.64-.9 1.5-.9 2.6s.3 1.97.9 2.61c.6.64 1.32.96 2.2.96.86 0 1.6-.32 2.2-.96.6-.64.9-1.5.9-2.6ZM95.55 19.3h-2.17v-3.57h1.09c1.14 0 1.7-.57 1.7-1.7V12h3.57v3.41h2.95v3.88h-2.95v4.65c0 .62.18 1.12.53 1.49.35.35.8.53 1.33.53h.44l.34-.06.3-.1v3.72a6.06 6.06 0 0 1-2.02.31c-1.62 0-2.88-.44-3.77-1.33-.9-.9-1.34-2.22-1.34-3.94V19.3ZM107.97 14.95a4.5 4.5 0 0 1 1.63-3.47 5.84 5.84 0 0 1 1.9-1.07 7.3 7.3 0 0 1 2.52-.41c.8 0 1.56.15 2.25.44a5.8 5.8 0 0 1 3.1 2.9c.32.64.5 1.34.54 2.08h-1.55a4.18 4.18 0 0 0-4.35-4.03c-.7 0-1.33.1-1.89.3-.55.2-1.02.46-1.4.8a3.13 3.13 0 0 0-1.2 2.47c0 .88.26 1.57.79 2.07.52.48 1.18.88 1.98 1.2.8.3 1.66.57 2.57.81.92.23 1.78.56 2.58.97.8.42 1.46.96 1.98 1.64.54.66.8 1.59.8 2.77 0 .79-.13 1.51-.42 2.18-.28.66-.69 1.22-1.22 1.7-.54.47-1.19.85-1.96 1.13-.77.27-1.63.41-2.6.41-.97 0-1.84-.14-2.6-.4a5.96 5.96 0 0 1-1.98-1.17 5.2 5.2 0 0 1-1.27-1.78 6.24 6.24 0 0 1-.51-2.22h1.56a4.9 4.9 0 0 0 1.47 3.03 4.68 4.68 0 0 0 3.33 1.15c1.48 0 2.63-.38 3.44-1.12a3.8 3.8 0 0 0 1.2-2.91c0-.93-.26-1.66-.78-2.18a5.76 5.76 0 0 0-1.98-1.29c-.8-.33-1.66-.62-2.58-.85-.92-.24-1.78-.56-2.57-.95-.8-.4-1.46-.91-1.99-1.55a4.08 4.08 0 0 1-.79-2.65ZM135.27 29.69h-1.86l-6.82-7.13v7.13h-1.4V10.15h1.4v12.4l6.2-6.5h1.86l-6.2 6.5 6.82 7.14ZM140.53 29.69h-1.39V16.04h1.4V29.7Zm-1.7-18c0-.3.1-.56.3-.77.2-.2.47-.31.78-.31a1.05 1.05 0 0 1 1.08 1.1c0 .3-.1.56-.3.77-.2.2-.46.3-.78.3-.3 0-.57-.1-.78-.3a1.1 1.1 0 0 1-.3-.78ZM152.63 15.9a5.45 5.45 0 0 1 3.88 1.58c.48.5.86 1.11 1.13 1.82.28.7.43 1.48.43 2.33v8.06h-1.4v-8.06c0-.61-.11-1.18-.33-1.7a4.19 4.19 0 0 0-2.23-2.31 4.46 4.46 0 0 0-4.74.9c-.38.4-.69.86-.9 1.39-.22.52-.33 1.1-.33 1.72v8.06h-1.4V16.04h.94l.46 2.02h.16c.25-.4.58-.76.98-1.1a5.3 5.3 0 0 1 3.35-1.08ZM172.64 25.81a4.02 4.02 0 0 1-1.29 2.83c-.4.37-.89.66-1.47.88a5.98 5.98 0 0 1-3.9 0 4.49 4.49 0 0 1-2.53-2.24 4.4 4.4 0 0 1-.43-1.62h1.4a3.5 3.5 0 0 0 1.07 2.05c.57.5 1.4.74 2.5.74 1.01 0 1.8-.26 2.38-.79.59-.52.88-1.14.88-1.85 0-.61-.2-1.09-.6-1.42-.39-.33-.88-.59-1.46-.76-.58-.18-1.21-.34-1.91-.47a9.15 9.15 0 0 1-1.9-.57 4.05 4.05 0 0 1-1.46-1.06 2.9 2.9 0 0 1-.58-1.93 3.47 3.47 0 0 1 1.18-2.6c.39-.35.86-.61 1.41-.8a5.64 5.64 0 0 1 3.73.03c.54.2 1.02.49 1.44.84a3.9 3.9 0 0 1 1.4 2.7h-1.4c-.16-.7-.52-1.3-1.06-1.77a3.2 3.2 0 0 0-2.2-.71c-1.01 0-1.78.23-2.32.7-.52.46-.78 1-.78 1.61 0 .6.2 1.05.59 1.35.39.3.87.54 1.45.71.57.16 1.21.32 1.9.46.7.13 1.34.32 1.92.59a3.9 3.9 0 0 1 1.45 1.09c.4.47.6 1.14.6 2.01Z"/>
  </svg>

	<svg id="dropdown-arrow"
		viewBox="0 0 12 7" fill="none">
		<path stroke="currentColor" stroke-linecap="round" stroke-linejoin="round" stroke-width="2" d="m1 1 5 5 5-5"/>
	</svg>

	<svg id="eye-open"
		viewBox="0 0 22 15" fill="none">
		<path fill="var(--gold)" d="M11 12c1.25 0 2.31-.44 3.19-1.31A4.34 4.34 0 0 0 15.5 7.5c0-1.25-.44-2.31-1.31-3.19A4.34 4.34 0 0 0 11 3c-1.25 0-2.31.44-3.19 1.31A4.34 4.34 0 0 0 6.5 7.5c0 1.25.44 2.31 1.31 3.19A4.34 4.34 0 0 0 11 12Zm0-1.8a2.6 2.6 0 0 1-1.91-.79A2.6 2.6 0 0 1 8.3 7.5c0-.75.26-1.39.79-1.91A2.6 2.6 0 0 1 11 4.8c.75 0 1.39.26 1.91.79.53.52.79 1.16.79 1.91a2.6 2.6 0 0 1-.79 1.91 2.6 2.6 0 0 1-1.91.79Zm0 4.8c-2.43 0-4.65-.68-6.65-2.04C2.35 11.6.9 9.78 0 7.5c.9-2.28 2.35-4.1 4.35-5.46C6.35.68 8.57 0 11 0c2.43 0 4.65.68 6.65 2.04 2 1.36 3.45 3.18 4.35 5.46-.9 2.28-2.35 4.1-4.35 5.46-2 1.36-4.22 2.04-6.65 2.04Zm0-2a9.77 9.77 0 0 0 8.8-5.5 9.77 9.77 0 0 0-17.6 0A9.77 9.77 0 0 0 11 13Z"/>
	</svg>

	<svg id="eye-close"
		viewBox="0 0 22 19" fill="none">
		<path fill="var(--gold)" d="M11 14c1.25 0 2.313-.438 3.188-1.313.874-.874 1.312-1.937 1.312-3.187 0-1.25-.438-2.313-1.313-3.188C13.313 5.438 12.25 5 11 5c-1.25 0-2.313.438-3.188 1.313S6.5 8.25 6.5 9.5c0 1.25.438 2.313 1.313 3.188C8.688 13.562 9.75 14 11 14Zm0-1.8c-.75 0-1.387-.262-1.912-.787A2.604 2.604 0 0 1 8.3 9.5c0-.75.262-1.387.787-1.912A2.604 2.604 0 0 1 11 6.8c.75 0 1.387.263 1.912.788.525.525.788 1.162.788 1.912s-.262 1.387-.787 1.912A2.604 2.604 0 0 1 11 12.2Zm0 4.8c-2.433 0-4.65-.68-6.65-2.037C2.35 13.604.9 11.783 0 9.5c.9-2.283 2.35-4.104 4.35-5.463C6.35 2.68 8.567 2 11 2c2.433 0 4.65.68 6.65 2.037 2 1.359 3.45 3.18 4.35 5.463-.847 2.148-2.18 3.887-4 5.216-.115.084-.231.166-.35.247C15.65 16.32 13.433 17 11 17Zm0-2a9.544 9.544 0 0 0 5.188-1.488A9.773 9.773 0 0 0 19.8 9.5a9.773 9.773 0 0 0-3.613-4.013A9.545 9.545 0 0 0 11 4a9.545 9.545 0 0 0-5.188 1.487A9.773 9.773 0 0 0 2.2 9.5a9.773 9.773 0 0 0 3.612 4.012A9.544 9.544 0 0 0 11 15Z"/>
		<path stroke="var(--gold)" stroke-width="2" d="m2 1 18 17"/>
	</svg>

	<svg id="check"
		viewBox="0 -960 960 960" fill="currentColor">
		<path d="M382-240 154-468l57-57 171 171 367-367 57 57-424 424Z"/>
	</svg>

	<svg id="trade"
		viewBox="0 0 40 56" fill="none">
		<path fill="var(--gray)" fill-rule="evenodd" d="M31.2 44.1 19.9 55.3l-4.1-4.1 3.8-3.8a19.1 19.1 0 0 1-13.7-5.8 19.5 19.5 0 0 1-5.9-14c0-1.9.3-3.7.8-5.6.5-1.8 1.3-3.6 2.5-5.2L7.6 21c-.5 1-1 2.2-1.2 3.3a13 13 0 0 0 .6 8.5 13.5 13.5 0 0 0 13 8.5L15.8 37l4.1-4.1L31.2 44Zm7.5-10.8c-.5 1.8-1.3 3.6-2.5 5.2L32 34.2c.5-1 1-2.2 1.2-3.3a13 13 0 0 0-.6-8.5 13.5 13.5 0 0 0-7.7-7.5c-1.9-.7-3.7-1-5.4-1l4.3 4.3-4.1 4.1L8.3 11.2 19.6 0l4.1 4.1L19.9 8c2.5 0 5 .5 7.4 1.4a18.8 18.8 0 0 1 10.8 10.8 20.5 20.5 0 0 1 .6 13Z" clip-rule="evenodd"/>
	</svg>

	<svg id="clock"
		viewBox="0 0 20 20" fill="none">
		<path fill="currentColor" d="m13.3 14.7 1.4-1.4L11 9.6V5H9v5.4l4.3 4.3ZM10 20a10.1 10.1 0 0 1-9.21-6.1A9.74 9.74 0 0 1 0 10 10.1 10.1 0 0 1 6.1.79 9.74 9.74 0 0 1 10 0a10.1 10.1 0 0 1 9.21 6.1c.53 1.22.79 2.52.79 3.9s-.26 2.68-.79 3.9a10.1 10.1 0 0 1-5.31 5.31A9.74 9.74 0 0 1 10 20Zm0-2c2.22 0 4.1-.78 5.66-2.34A7.71 7.71 0 0 0 18 10c0-2.22-.78-4.1-2.34-5.66A7.71 7.71 0 0 0 10 2c-2.22 0-4.1.78-5.66 2.34A7.71 7.71 0 0 0 2 10c0 2.22.78 4.1 2.34 5.66A7.71 7.71 0 0 0 10 18Z"/>
	</svg>
	
	<svg id="reset"
		viewBox="0 0 16 16" fill="none">
		<path fill="currentColor" d="M8 16a7.72 7.72 0 0 1-5.67-2.32A7.72 7.72 0 0 1 0 8c0-2.23.78-4.13 2.33-5.67A7.72 7.72 0 0 1 8 0a7.92 7.92 0 0 1 6 2.75V0h2v7H9V5h4.2A5.93 5.93 0 0 0 8 2c-1.67 0-3.08.58-4.25 1.75A5.79 5.79 0 0 0 2 8c0 1.67.58 3.08 1.75 4.25A5.79 5.79 0 0 0 8 14c1.28 0 2.44-.37 3.47-1.1a5.8 5.8 0 0 0 2.18-2.9h2.1a7.9 7.9 0 0 1-2.85 4.32A7.76 7.76 0 0 1 8 16Z"/>
	</svg>

	<svg id="double-arrow-right"
		viewBox="0 0 14 12" fill="none">
		<path fill="currentColor" d="M4.6 6 0 1.4 1.4 0l6 6-6 6L0 10.6 4.6 6Zm6.6 0L6.6 1.4 8 0l6 6-6 6-1.4-1.4L11.2 6Z"/>
	</svg>

	<svg id="search-marker"
		viewBox="0 0 17 13" fill="none">
		<path fill="currentColor" d="M5.28 13a2.105 2.105 0 0 1-1.726-.889L.337 7.544A1.773 1.773 0 0 1 0 6.5c0-.378.112-.726.337-1.044L3.554.908c.196-.28.445-.5.746-.664A2.03 2.03 0 0 1 5.28 0h9.5c.5 0 .925.177 1.279.53.353.353.53.78.53 1.278v9.384c0 .499-.177.925-.53 1.278-.354.353-.78.53-1.278.53h-9.5Zm4.635-5.446 2.074 2.073c.138.138.312.21.521.212a.707.707 0 0 0 .532-.212.718.718 0 0 0 .217-.527.718.718 0 0 0-.217-.527L10.97 6.5l2.073-2.073a.724.724 0 0 0 .213-.522.707.707 0 0 0-.213-.532.717.717 0 0 0-.527-.217.718.718 0 0 0-.527.217L9.916 5.446 7.841 3.373a.725.725 0 0 0-.522-.213.707.707 0 0 0-.532.213.718.718 0 0 0-.217.527c0 .206.073.382.218.527L8.86 6.5 6.788 8.573a.725.725 0 0 0-.212.522.708.708 0 0 0 .213.532c.144.145.32.217.527.217a.717.717 0 0 0 .526-.217l2.074-2.073Z"/>
	</svg>
</svg>
