<svg xmlns="http://www.w3.org/2000/svg">
	<defs>
		<style>
			:root svg:not(:target) {
				display: none;
			}
		</style>
	</defs>

	<svg id="dropdown-arrow"
		viewBox="0 0 12 7" fill="none">
		<path stroke="var(--gray)" stroke-linecap="round" stroke-linejoin="round" stroke-width="2" d="m1 1 5 5 5-5"/>
	</svg>

	<svg id="eye-open"
		viewBox="0 0 22 15" fill="#909195">
		<path fill="#909195" d="M11 12c1.25 0 2.31-.44 3.19-1.31A4.34 4.34 0 0 0 15.5 7.5c0-1.25-.44-2.31-1.31-3.19A4.34 4.34 0 0 0 11 3c-1.25 0-2.31.44-3.19 1.31A4.34 4.34 0 0 0 6.5 7.5c0 1.25.44 2.31 1.31 3.19A4.34 4.34 0 0 0 11 12Zm0-1.8a2.6 2.6 0 0 1-1.91-.79A2.6 2.6 0 0 1 8.3 7.5c0-.75.26-1.39.79-1.91A2.6 2.6 0 0 1 11 4.8c.75 0 1.39.26 1.91.79.53.52.79 1.16.79 1.91a2.6 2.6 0 0 1-.79 1.91 2.6 2.6 0 0 1-1.91.79Zm0 4.8c-2.43 0-4.65-.68-6.65-2.04C2.35 11.6.9 9.78 0 7.5c.9-2.28 2.35-4.1 4.35-5.46C6.35.68 8.57 0 11 0c2.43 0 4.65.68 6.65 2.04 2 1.36 3.45 3.18 4.35 5.46-.9 2.28-2.35 4.1-4.35 5.46-2 1.36-4.22 2.04-6.65 2.04Zm0-2a9.77 9.77 0 0 0 8.8-5.5 9.77 9.77 0 0 0-17.6 0A9.77 9.77 0 0 0 11 13Z"/>
	</svg>

	<svg id="eye-close"
		viewBox="0 0 22 19" fill="none">
		<path fill="#909195" d="M11 14c1.25 0 2.313-.438 3.188-1.313.874-.874 1.312-1.937 1.312-3.187 0-1.25-.438-2.313-1.313-3.188C13.313 5.438 12.25 5 11 5c-1.25 0-2.313.438-3.188 1.313S6.5 8.25 6.5 9.5c0 1.25.438 2.313 1.313 3.188C8.688 13.562 9.75 14 11 14Zm0-1.8c-.75 0-1.387-.262-1.912-.787A2.604 2.604 0 0 1 8.3 9.5c0-.75.262-1.387.787-1.912A2.604 2.604 0 0 1 11 6.8c.75 0 1.387.263 1.912.788.525.525.788 1.162.788 1.912s-.262 1.387-.787 1.912A2.604 2.604 0 0 1 11 12.2Zm0 4.8c-2.433 0-4.65-.68-6.65-2.037C2.35 13.604.9 11.783 0 9.5c.9-2.283 2.35-4.104 4.35-5.463C6.35 2.68 8.567 2 11 2c2.433 0 4.65.68 6.65 2.037 2 1.359 3.45 3.18 4.35 5.463-.847 2.148-2.18 3.887-4 5.216-.115.084-.231.166-.35.247C15.65 16.32 13.433 17 11 17Zm0-2a9.544 9.544 0 0 0 5.188-1.488A9.773 9.773 0 0 0 19.8 9.5a9.773 9.773 0 0 0-3.613-4.013A9.545 9.545 0 0 0 11 4a9.545 9.545 0 0 0-5.188 1.487A9.773 9.773 0 0 0 2.2 9.5a9.773 9.773 0 0 0 3.612 4.012A9.544 9.544 0 0 0 11 15Z"/>
		<path stroke="#909195" stroke-width="2" d="m2 1 18 17"/>
	</svg>

	<svg id="check"
		viewBox="0 -960 960 960" fill="currentColor">
		<path d="M382-240 154-468l57-57 171 171 367-367 57 57-424 424Z"/>
	</svg>

	<svg id="trade"
		viewBox="0 0 40 56" fill="none">
		<path fill="var(--gray)" fill-rule="evenodd" d="M31.2 44.1 19.9 55.3l-4.1-4.1 3.8-3.8a19.1 19.1 0 0 1-13.7-5.8 19.5 19.5 0 0 1-5.9-14c0-1.9.3-3.7.8-5.6.5-1.8 1.3-3.6 2.5-5.2L7.6 21c-.5 1-1 2.2-1.2 3.3a13 13 0 0 0 .6 8.5 13.5 13.5 0 0 0 13 8.5L15.8 37l4.1-4.1L31.2 44Zm7.5-10.8c-.5 1.8-1.3 3.6-2.5 5.2L32 34.2c.5-1 1-2.2 1.2-3.3a13 13 0 0 0-.6-8.5 13.5 13.5 0 0 0-7.7-7.5c-1.9-.7-3.7-1-5.4-1l4.3 4.3-4.1 4.1L8.3 11.2 19.6 0l4.1 4.1L19.9 8c2.5 0 5 .5 7.4 1.4a18.8 18.8 0 0 1 10.8 10.8 20.5 20.5 0 0 1 .6 13Z" clip-rule="evenodd"/>
	</svg>

	<svg id="clock"
		viewBox="0 0 20 20" fill="none">
		<path fill="currentColor" d="m13.3 14.7 1.4-1.4L11 9.6V5H9v5.4l4.3 4.3ZM10 20a10.1 10.1 0 0 1-9.21-6.1A9.74 9.74 0 0 1 0 10 10.1 10.1 0 0 1 6.1.79 9.74 9.74 0 0 1 10 0a10.1 10.1 0 0 1 9.21 6.1c.53 1.22.79 2.52.79 3.9s-.26 2.68-.79 3.9a10.1 10.1 0 0 1-5.31 5.31A9.74 9.74 0 0 1 10 20Zm0-2c2.22 0 4.1-.78 5.66-2.34A7.71 7.71 0 0 0 18 10c0-2.22-.78-4.1-2.34-5.66A7.71 7.71 0 0 0 10 2c-2.22 0-4.1.78-5.66 2.34A7.71 7.71 0 0 0 2 10c0 2.22.78 4.1 2.34 5.66A7.71 7.71 0 0 0 10 18Z"/>
	</svg>
</svg>
