<svg xmlns="http://www.w3.org/2000/svg">
	<defs>
		<style>
			:root svg:not(:target) {
				display: none;
			}
		</style>
	</defs>

  <svg id="cs-go"
		viewBox="0 0 128 128" fill="none">
      <path fill="#FFFFFF" d="M60.5.3c2.4-2.2 6-3 9.2-2 1.2.3 2.2 1 3.3 1.8 1 .6 2 .8 2.8 1.5.4.3 0 .8 0 1.3 1.1 2.5 1.7 5.2.8 8-.7.8-2 1-3 1.5-.2 1.1.2 2.2.3 3.3l-.6.5c1.5-.1 3-.4 4.6-.8.5-.5 1.4-.2 2.2-.3 0-1.1.4-2.2.4-3.3.2 0 .5 0 .7-.2 0 .8 0 1.7.2 2.5.4.3 1 .1 1.6.2v1h28.2v1.4h.9v-5.3h1v4.3l.4.2.1.6c.3-.3.7-.6 1.2-.4l.2.8c-.3.3-.4.7-.3 1.2h7.8c.3-.3.7-.5 1-.6.3 0 .5.2.6.3h3.8a5 5 0 0 1 0 1.9h-3.8l-.5.4-1.1-.7h-7c-1.4.4-2.9.4-4.2.1v1.6H99.7a3 3 0 0 1-1.6.7c.3 1.2-1.1 1.5-1.6 2.4-.3.5-.8.8-1.3 1-.4 2.5.5 4.9 1.1 7.2l-2.2.6-1.1 5a4.7 4.7 0 0 1-2.9 3.2c-1 1.1-2.2 2.3-3.8 2.4-.5.1-1-.3-1.3-.6-2 .2-3.9-.8-5.7-1.6l-5.5-3.1c.1 1.1-.4 2.1-.8 3 .8.5 2 .8 2.5 1.8.4.7.7 1.5.7 2.4 0 3-.4 5.9-.6 8.8.1 2.1-1 4.2-2.4 5.8-1-.1-1.8-.5-2.7-1-.3.8-1 1.5-.6 2.4.3 1 .3 2.2.8 3.2 2.7 3 5 6.2 6.8 9.8 1.7 3.5 3 7.2 4.3 10.8h1c.3 1 0 2.2.6 3.2.6.9.4 2 .4 3a223 223 0 0 1-.5 7.3l-.8 5.1c0 1.3.6 2.6.5 4 0 1.2 0 2.5-1 3.4 0 2.7-.7 5.5.3 8.2 1.3 1.8 2.8 3.5 4.3 5 1.7.8 3.7 1 5.1 2.4.6 1 .3 2 .1 3-3.4.5-7 .5-10.4 0-1.3-.4-2.6-1-4-1-1.9 0-4 .7-5.7-.6-.2-2.2.6-4.3 1-6.4.2-.7 1-1.2.8-2l-.5-7.6c-.3-.1-.8-.3-.8-.8 0-1.2-.4-2.4-.7-3.6-.6-3-.8-6.2-.9-9.4 0-.9.5-1.5 1.2-2.1l.4-4.2c-.3-.8-.9-1.3-1.2-2-1.4.2-3.5.5-4.4-1l-6.4-9.6c-.9-.1-2 0-2.7-.6-.9-1-1.5-2.3-2-3.5-.3 1-.4 2-1 2.8-.5.9-1.3 1.4-1.9 2.2a78 78 0 0 0-1.5 3.9c-.6 1.6-1.4 3.2-1.5 5-.1.9-.3 1.7-.6 2.5-.4.7-1.1 1-1.8 1.2-.4 1-.8 2.1-1.5 3-.5.6-1.3.8-1.6 1.5-.3 1-.8 1.9-1.2 2.8-.2 1 .5 2 .2 3-.6 2.4-1.8 4.7-3 6.9-.5 1.6-1 3.3-1.7 4.9-.3.6-1.2.8-1.8.9-.7 1.7-1.5 3.4-2 5.3-.3 1.8-.3 3.7-.2 5.5 0 .8.5 1.4.8 2.2.4 1 .1 1.9 0 2.9-3.2.4-6.4.7-9.5-.3-.3-.2-.2-.6-.3-1a9 9 0 0 1 0-4.3c1.1-3.8 2-7.7 3-11.5-.3-.4-1-.7-1-1.4 0-1 0-2.2.3-3.2.5-1.8 1.8-3.2 2.5-4.9.2-.7.1-1.5.2-2.2 0-1.7 1-3 1.7-4.5.7-1.3 1.3-2.6 2.2-3.6.7-.6.7-1.5 1.2-2.2.5-.9 1.3-1.6 1.3-2.7.1-1.3-.4-2.6-.2-3.9.3-3.8 1-7.5 1.7-11.4-.3-.4-.8-.8-1-1.3l.3-1.2-.8-1.2 1-1.5-1-.9c.4-1.2.2-3 1.7-3.5l.7.2c-.3-2.1-.3-4.3-.5-6.4a20 20 0 0 1-.4-7c.8-1.1 2.3-1.6 3.7-1.7-1.8-.4-3.5-.6-5.2-1.1-.1-1.5.1-3 .4-4.4.7-2.9.4-5.8.8-8.7.4-.8 1.4-1 2.3-.8 1 .1 2.1-.2 3.2-.5v-1.3c-.7-2.9-.5-5.8 0-8.6.6-3.5 2-7 4.7-9.6A9.4 9.4 0 0 1 55 13c.8 0 1.3.8 2 1.3l.8-1c-.4-1.3-1-2.8-1-4.3C57 5.8 58 2.4 60.5.3Zm25.1 23c.2.1.2.1 0 0Zm1.1.1c.1.6.3 1.1 0 1.6-.4.2-1 .2-1.3.4h3.4c.9-.2.5-1.3.5-2-.5-.6-1.7-.2-2.6 0ZM84 26.8c.8 1 1.2 2.3 2 3.2 1-1.4 1.8-2.9 3-4-1.4-.2-2.9 0-4.3-.2l-.7 1Z"/>
	</svg>

  <svg id="dota-2"
		viewBox="0 0 128 128" fill="none">
      <path fill="#AC2E15" d="M128 12.2V6a3 3 0 0 0-3-3h-12.2c-1.2 0-2.2 0-3 .3V3a3 3 0 0 0-3.1-3H88.4C83 0 81.2 3 80 6.1h-2.5c-.7-1-1.4-2.2-1.4-3a3 3 0 0 0-3-3.1H51.7a3 3 0 0 0-3 2.7c0 .7-1.4 3.4-3.4 3.4H37l-.7-1.2A3 3 0 0 0 33.5 3H3a3 3 0 0 0-3 3.1v24.4a108 108 0 0 0 3 21.7v4.6l-2 2A3 3 0 0 0 0 61V73c0 .9.3 1.6.9 2.2L3 77.5v13.4L.2 99.6a3 3 0 0 0-.1 1.7l2.8 11.3L.2 121a3 3 0 0 0 2.8 4h42.7a3 3 0 0 0 2.2-.8l.2-.3c1.7 2.2 4 4.2 6.8 4.2H64c2.2 0 4.2-1 6-1.8A9.2 9.2 0 0 1 73 125h15.3a3 3 0 0 0 2.1-1l.8-.7.5.7c1.5 2 3 4 5.7 4h15.3a3 3 0 0 0 3-3v-2.2l8.4 2a3 3 0 0 0 3.8-3c0-.2-.2-30.1 0-45.6a3 3 0 0 0-.9-2.2L125 72v-14a3 3 0 0 0-1-2.1l-1.4-1.5 1.8-3.7 2.7-2.7a3 3 0 0 0 .9-2.2V30.4l-.1-.7-2.8-11 2.6-5.1.3-1.4ZM91.7 24.4l9.3 6-3.1 18.4L73 30.5l18.6-6.1Zm-58.2 79.2-12.2-9.1L27.4 73l24.4 24.4-18.3 6.1Zm64.6-3H84L21.3 27.2l11.4-2.8 74 56.4-8.6 19.8Z"/>
	</svg>

  <svg id="test"
    viewBox="0 0 114 114" fill="none">
      <path fill="var(--color-gray-lightest)" d="M60.56 16.43V9.31h44.76v7.12H60.56Z"/>
      <path fill="var(--color-blue-light)" d="M1.56 1.56h7.12v110.88H1.56V1.56Z"/>
      <path fill="var(--color-red)" d="M53.44 1.56h7.12v110.88h-7.12V1.56Z"/>
      <path fill="var(--color-gray-lightest)" d="M8.68 16.43V9.31h44.76v7.12H8.68ZM8.68 38.5v-7.13h44.76v7.13H8.68ZM8.68 60.56v-7.12h44.76v7.12H8.68ZM8.68 82.63V75.5h44.76v7.13H8.68ZM8.68 104.69v-7.12h44.76v7.12H8.68Z"/>
      <path fill="var(--color-blue-light)" d="M105.32 1.56h7.12v110.88h-7.12V1.56ZM82.94 31.51a12.92 12.92 0 1 0 0 25.85 12.92 12.92 0 0 0 0-25.85Zm0 18.72a5.8 5.8 0 1 1 0-11.59 5.8 5.8 0 0 1 0 11.6Z"/>
      <path fill="var(--color-blue-light)" d="M79.38 32.02v7.85a5.76 5.76 0 0 1 7.12 0v-7.85c-2.32-.68-4.8-.68-7.12 0Z"/>
      <path fill="var(--color-gray-light)" d="M82.94 31.51c1.2 0 2.4.18 3.56.51V9.32h-7.12v22.7c1.15-.33 2.35-.5 3.56-.5Z"/>
      <path fill="currentColor" d="M22.49 40.06h1.22a1.56 1.56 0 1 0 0-3.12H22.5a1.56 1.56 0 1 0 0 3.12Z"/>
      <path fill="currentColor" d="M112.44 27.32a1.56 1.56 0 0 0 1.56-1.56V1.56A1.56 1.56 0 0 0 112.44 0h-7.12a1.56 1.56 0 0 0-1.56 1.56v6.19H62.12v-6.2A1.56 1.56 0 0 0 60.56 0h-7.12a1.56 1.56 0 0 0-1.56 1.56v6.19H10.24v-6.2A1.56 1.56 0 0 0 8.68 0H1.56A1.56 1.56 0 0 0 0 1.56v110.88A1.56 1.56 0 0 0 1.56 114h7.12a1.56 1.56 0 0 0 1.56-1.56v-6.19h41.64v6.2a1.56 1.56 0 0 0 1.56 1.55h7.12a1.57 1.57 0 0 0 1.56-1.56V18h15.7V30.9a14.48 14.48 0 1 0 10.24 0V18h15.7v94.44a1.57 1.57 0 0 0 1.56 1.56h7.12a1.57 1.57 0 0 0 1.56-1.56V36.63a1.56 1.56 0 1 0-3.12 0v74.25h-4V3.12h4v22.64a1.57 1.57 0 0 0 1.56 1.56Zm-27.5-16.45v4h-4v-4h4ZM51.88 36.94h-20.6a1.56 1.56 0 1 0 0 3.12h20.6v11.82H10.24V40.06h4.68a1.56 1.56 0 0 0 0-3.12h-4.68v-4h41.64v4Zm0 22.06H10.24v-4h41.64v4Zm-41.64 3.12h41.64v11.82H10.24V62.12Zm0 14.94h41.64v4H10.24v-4Zm41.64-47.24H10.24V17.99h41.64v11.83ZM10.24 84.18h41.64v11.83H10.24V84.18Zm41.64-73.31v4H10.24v-4h41.64ZM7.12 110.88h-4V3.12h4v107.76Zm3.12-7.75v-4h41.64v4H10.24ZM59 110.88h-4V3.12h4v107.76Zm3.12-96v-4.01h15.7v4h-15.7Zm18.3 26.16a4.18 4.18 0 0 1 1.1-.58l.16-.05c.82-.25 1.7-.25 2.52 0l.16.05a4.18 4.18 0 0 1 1.1.58 4.24 4.24 0 1 1-5.04 0Zm4.37-3.71c-.22-.06-.45-.11-.68-.15l-.26-.04a6.7 6.7 0 0 0-1.82 0l-.26.04c-.23.04-.46.1-.68.15l-.15.03v-4.1l.14-.03.12-.01.5-.07.29-.03c.26-.03.52-.04.78-.04h.34c.26 0 .52.01.78.04.1 0 .2.02.29.03l.5.07.12.01.14.03v4.1l-.15-.03Zm9.52 7.1A11.37 11.37 0 1 1 77.8 34.3v4.87a7.36 7.36 0 1 0 10.25 0V34.3a11.37 11.37 0 0 1 6.24 10.14ZM84.94 30.1l-.25-.03a12.36 12.36 0 0 0-1.75-.12 13.96 13.96 0 0 0-1.75.12l-.25.03V18h4v12.1Zm3.12-15.22v-4.01h15.7v4h-15.7Z"/>
  </svg>
</svg>
