<svg xmlns="http://www.w3.org/2000/svg">
	<defs>
		<style>
			:root svg:not(:target) {
				display: none;
			}
		</style>
	</defs>

	<svg id="cs-go"
		viewBox="0 0 128 128" fill="none">
		<path fill="#FFFFFF" d="M60.5.3c2.4-2.2 6-3 9.2-2 1.2.3 2.2 1 3.3 1.8 1 .6 2 .8 2.8 1.5.4.3 0 .8 0 1.3 1.1 2.5 1.7 5.2.8 8-.7.8-2 1-3 1.5-.2 1.1.2 2.2.3 3.3l-.6.5c1.5-.1 3-.4 4.6-.8.5-.5 1.4-.2 2.2-.3 0-1.1.4-2.2.4-3.3.2 0 .5 0 .7-.2 0 .8 0 1.7.2 2.5.4.3 1 .1 1.6.2v1h28.2v1.4h.9v-5.3h1v4.3l.4.2.1.6c.3-.3.7-.6 1.2-.4l.2.8c-.3.3-.4.7-.3 1.2h7.8c.3-.3.7-.5 1-.6.3 0 .5.2.6.3h3.8a5 5 0 0 1 0 1.9h-3.8l-.5.4-1.1-.7h-7c-1.4.4-2.9.4-4.2.1v1.6H99.7a3 3 0 0 1-1.6.7c.3 1.2-1.1 1.5-1.6 2.4-.3.5-.8.8-1.3 1-.4 2.5.5 4.9 1.1 7.2l-2.2.6-1.1 5a4.7 4.7 0 0 1-2.9 3.2c-1 1.1-2.2 2.3-3.8 2.4-.5.1-1-.3-1.3-.6-2 .2-3.9-.8-5.7-1.6l-5.5-3.1c.1 1.1-.4 2.1-.8 3 .8.5 2 .8 2.5 1.8.4.7.7 1.5.7 2.4 0 3-.4 5.9-.6 8.8.1 2.1-1 4.2-2.4 5.8-1-.1-1.8-.5-2.7-1-.3.8-1 1.5-.6 2.4.3 1 .3 2.2.8 3.2 2.7 3 5 6.2 6.8 9.8 1.7 3.5 3 7.2 4.3 10.8h1c.3 1 0 2.2.6 3.2.6.9.4 2 .4 3a223 223 0 0 1-.5 7.3l-.8 5.1c0 1.3.6 2.6.5 4 0 1.2 0 2.5-1 3.4 0 2.7-.7 5.5.3 8.2 1.3 1.8 2.8 3.5 4.3 5 1.7.8 3.7 1 5.1 2.4.6 1 .3 2 .1 3-3.4.5-7 .5-10.4 0-1.3-.4-2.6-1-4-1-1.9 0-4 .7-5.7-.6-.2-2.2.6-4.3 1-6.4.2-.7 1-1.2.8-2l-.5-7.6c-.3-.1-.8-.3-.8-.8 0-1.2-.4-2.4-.7-3.6-.6-3-.8-6.2-.9-9.4 0-.9.5-1.5 1.2-2.1l.4-4.2c-.3-.8-.9-1.3-1.2-2-1.4.2-3.5.5-4.4-1l-6.4-9.6c-.9-.1-2 0-2.7-.6-.9-1-1.5-2.3-2-3.5-.3 1-.4 2-1 2.8-.5.9-1.3 1.4-1.9 2.2a78 78 0 0 0-1.5 3.9c-.6 1.6-1.4 3.2-1.5 5-.1.9-.3 1.7-.6 2.5-.4.7-1.1 1-1.8 1.2-.4 1-.8 2.1-1.5 3-.5.6-1.3.8-1.6 1.5-.3 1-.8 1.9-1.2 2.8-.2 1 .5 2 .2 3-.6 2.4-1.8 4.7-3 6.9-.5 1.6-1 3.3-1.7 4.9-.3.6-1.2.8-1.8.9-.7 1.7-1.5 3.4-2 5.3-.3 1.8-.3 3.7-.2 5.5 0 .8.5 1.4.8 2.2.4 1 .1 1.9 0 2.9-3.2.4-6.4.7-9.5-.3-.3-.2-.2-.6-.3-1a9 9 0 0 1 0-4.3c1.1-3.8 2-7.7 3-11.5-.3-.4-1-.7-1-1.4 0-1 0-2.2.3-3.2.5-1.8 1.8-3.2 2.5-4.9.2-.7.1-1.5.2-2.2 0-1.7 1-3 1.7-4.5.7-1.3 1.3-2.6 2.2-3.6.7-.6.7-1.5 1.2-2.2.5-.9 1.3-1.6 1.3-2.7.1-1.3-.4-2.6-.2-3.9.3-3.8 1-7.5 1.7-11.4-.3-.4-.8-.8-1-1.3l.3-1.2-.8-1.2 1-1.5-1-.9c.4-1.2.2-3 1.7-3.5l.7.2c-.3-2.1-.3-4.3-.5-6.4a20 20 0 0 1-.4-7c.8-1.1 2.3-1.6 3.7-1.7-1.8-.4-3.5-.6-5.2-1.1-.1-1.5.1-3 .4-4.4.7-2.9.4-5.8.8-8.7.4-.8 1.4-1 2.3-.8 1 .1 2.1-.2 3.2-.5v-1.3c-.7-2.9-.5-5.8 0-8.6.6-3.5 2-7 4.7-9.6A9.4 9.4 0 0 1 55 13c.8 0 1.3.8 2 1.3l.8-1c-.4-1.3-1-2.8-1-4.3C57 5.8 58 2.4 60.5.3Zm25.1 23c.2.1.2.1 0 0Zm1.1.1c.1.6.3 1.1 0 1.6-.4.2-1 .2-1.3.4h3.4c.9-.2.5-1.3.5-2-.5-.6-1.7-.2-2.6 0ZM84 26.8c.8 1 1.2 2.3 2 3.2 1-1.4 1.8-2.9 3-4-1.4-.2-2.9 0-4.3-.2l-.7 1Z"/>
	</svg>

	<svg id="dota-2"
		viewBox="0 0 128 128" fill="none">
		<path fill="#AC2E15" d="M128 12.2V6a3 3 0 0 0-3-3h-12.2c-1.2 0-2.2 0-3 .3V3a3 3 0 0 0-3.1-3H88.4C83 0 81.2 3 80 6.1h-2.5c-.7-1-1.4-2.2-1.4-3a3 3 0 0 0-3-3.1H51.7a3 3 0 0 0-3 2.7c0 .7-1.4 3.4-3.4 3.4H37l-.7-1.2A3 3 0 0 0 33.5 3H3a3 3 0 0 0-3 3.1v24.4a108 108 0 0 0 3 21.7v4.6l-2 2A3 3 0 0 0 0 61V73c0 .9.3 1.6.9 2.2L3 77.5v13.4L.2 99.6a3 3 0 0 0-.1 1.7l2.8 11.3L.2 121a3 3 0 0 0 2.8 4h42.7a3 3 0 0 0 2.2-.8l.2-.3c1.7 2.2 4 4.2 6.8 4.2H64c2.2 0 4.2-1 6-1.8A9.2 9.2 0 0 1 73 125h15.3a3 3 0 0 0 2.1-1l.8-.7.5.7c1.5 2 3 4 5.7 4h15.3a3 3 0 0 0 3-3v-2.2l8.4 2a3 3 0 0 0 3.8-3c0-.2-.2-30.1 0-45.6a3 3 0 0 0-.9-2.2L125 72v-14a3 3 0 0 0-1-2.1l-1.4-1.5 1.8-3.7 2.7-2.7a3 3 0 0 0 .9-2.2V30.4l-.1-.7-2.8-11 2.6-5.1.3-1.4ZM91.7 24.4l9.3 6-3.1 18.4L73 30.5l18.6-6.1Zm-58.2 79.2-12.2-9.1L27.4 73l24.4 24.4-18.3 6.1Zm64.6-3H84L21.3 27.2l11.4-2.8 74 56.4-8.6 19.8Z"/>
	</svg>
</svg>
