<svg xmlns="http://www.w3.org/2000/svg" width="814" height="142" fill="none"><path fill="#fff" d="M116.7 1v138.8H84.8v-55H31.9v55H0V1h32v53h52.8V1h32ZM136.6 89.1a53 53 0 0 1 15.2-37.4 49.8 49.8 0 0 1 36.6-15.4 48 48 0 0 1 20 4.2 50.3 50.3 0 0 1 27.5 28 50.6 50.6 0 0 1 4.3 20.6 53.5 53.5 0 0 1-15.2 37.7 50.3 50.3 0 0 1-36.6 15.2 52 52 0 0 1-20.3-4 54.8 54.8 0 0 1-27.5-28c-2.6-6.4-4-13.4-4-20.9Zm73.8 0a26 26 0 0 0-6.4-18.5 20.6 20.6 0 0 0-15.6-6.8c-6.2 0-11.4 2.3-15.6 6.8a26 26 0 0 0-6.4 18.5 26 26 0 0 0 6.4 18.5c4.2 4.6 9.4 6.9 15.6 6.9 6.2 0 11.4-2.3 15.6-6.9a26 26 0 0 0 6.4-18.5ZM266.6 66h-15.4V40.7h7.7c8.1 0 12.2-4 12.2-12.1V14.3h25.3v24.2h20.9V66h-21v33c0 4.5 1.3 8 3.8 10.6 2.5 2.5 5.7 3.8 9.5 3.8h3a74 74 0 0 0 4.7-1.1v26.4a43 43 0 0 1-14.3 2.2c-11.6 0-20.6-3.2-26.9-9.5-6.3-6.4-9.5-15.8-9.5-28V66ZM354.8 35.2a32 32 0 0 1 11.5-24.7c3.8-3.2 8.3-5.7 13.6-7.6C385.2.9 391 0 397.7 0c5.8 0 11.1 1 16 3.1a41.3 41.3 0 0 1 22.1 20.6c2.2 4.5 3.5 9.5 3.8 14.8h-11a29.7 29.7 0 0 0-30.9-28.6c-5 0-9.5.7-13.4 2.1a30 30 0 0 0-10 5.6c-2.7 2.3-4.8 5-6.3 8.1-1.5 3-2.2 6.2-2.2 9.5 0 6.3 1.9 11.2 5.6 14.7 3.7 3.4 8.4 6.3 14 8.5a183 183 0 0 0 18.4 5.8c6.5 1.6 12.6 4 18.3 6.9 5.6 3 10.3 6.8 14 11.6a30.6 30.6 0 0 1 5.7 19.7c0 5.6-1 10.7-3 15.5-2 4.6-4.9 8.6-8.7 12-3.8 3.4-8.4 6-13.9 8a55 55 0 0 1-18.5 3c-6.8 0-13-1-18.5-3-5.4-2-10-4.7-14-8.2a36.9 36.9 0 0 1-9-12.6 44.4 44.4 0 0 1-3.6-15.8h11c1.2 8.8 4.7 16 10.5 21.5a33.2 33.2 0 0 0 23.6 8.2c10.6 0 18.7-2.7 24.5-8a27 27 0 0 0 8.6-20.6 21 21 0 0 0-5.6-15.5 41 41 0 0 0-14.1-9.2c-5.7-2.3-11.8-4.3-18.3-6-6.5-1.7-12.6-4-18.3-6.7a42.2 42.2 0 0 1-14-11 29 29 0 0 1-5.7-18.8ZM548.7 139.8h-13.3L487 89.1v50.7h-10V1.1h10v88L531 43h13.3l-44.1 46.2 48.5 50.7ZM586 139.8h-9.9V42.9h10v96.9ZM574 12c0-2.2.7-4 2.1-5.4a7.6 7.6 0 0 1 5.6-2.3c2.2 0 4 .8 5.5 2.3a7.4 7.4 0 0 1 2.2 5.4 7.4 7.4 0 0 1-7.6 7.7c-2.3 0-4.2-.6-5.7-2A7.8 7.8 0 0 1 574 12ZM671.9 41.8a38.7 38.7 0 0 1 27.5 11.3 44.2 44.2 0 0 1 11 29.5v57.2h-9.8V82.6c0-4.4-.8-8.4-2.4-12.2a29.7 29.7 0 0 0-15.8-16.3 31.7 31.7 0 0 0-33.7 6.5c-2.7 2.7-4.8 6-6.4 9.7a32.4 32.4 0 0 0-2.2 12.3v57.2h-10V42.9h6.6l3.4 14.3h1c1.8-2.8 4.2-5.4 7-7.7a37.7 37.7 0 0 1 23.8-7.6ZM814 112.3a28.6 28.6 0 0 1-19.6 26.3 42.5 42.5 0 0 1-27.7 0 33.6 33.6 0 0 1-18-15.9 31.4 31.4 0 0 1-3-11.5h9.9c1.2 6.2 3.7 11 7.6 14.5 4 3.5 10 5.3 17.8 5.3 7.2 0 12.8-1.9 16.9-5.6 4.1-3.7 6.2-8.1 6.2-13.1 0-4.4-1.4-7.8-4.2-10.1a28.2 28.2 0 0 0-10.4-5.4c-4.1-1.3-8.6-2.4-13.6-3.4a65 65 0 0 1-13.5-4c-4.1-1.8-7.5-4.3-10.3-7.6-2.8-3.2-4.1-7.7-4.1-13.6a24.6 24.6 0 0 1 8.4-18.5 29 29 0 0 1 10-5.7 40.1 40.1 0 0 1 26.4.2c3.9 1.5 7.3 3.5 10.2 6a27.6 27.6 0 0 1 9.9 19.1H803c-1.1-5-3.6-9.2-7.5-12.5-3.8-3.4-9-5-15.6-5-7.2 0-12.6 1.6-16.4 4.9a15 15 0 0 0-5.6 11.5c0 4.2 1.4 7.4 4.2 9.5 2.8 2.2 6.2 3.9 10.3 5.1 4 1.2 8.6 2.2 13.5 3.2 5 1 9.5 2.4 13.6 4.2 4 1.8 7.5 4.4 10.3 7.8 2.8 3.3 4.2 8.1 4.2 14.3Z"/></svg>